<svg width="50" height="51" viewBox="0 0 50 51" fill="none" xmlns="http://www.w3.org/2000/svg">
<path d="M23.4603 33.2347L11.6895 21.4431C11.4942 21.2494 11.3392 21.019 11.2335 20.7651C11.1277 20.5112 11.0732 20.2389 11.0732 19.9639C11.0732 19.6889 11.1277 19.4166 11.2335 19.1627C11.3392 18.9088 11.4942 18.6784 11.6895 18.4847C12.0798 18.0967 12.6079 17.8789 13.1582 17.8789C13.7086 17.8789 14.2367 18.0967 14.627 18.4847L25.0437 28.7972L35.3562 18.4847C35.7465 18.0967 36.2745 17.8789 36.8249 17.8789C37.3753 17.8789 37.9033 18.0967 38.2937 18.4847C38.4905 18.6777 38.6471 18.9078 38.7544 19.1617C38.8617 19.4156 38.9175 19.6883 38.9186 19.9639C38.9175 20.2395 38.8617 20.5122 38.7544 20.7661C38.6471 21.02 38.4905 21.2501 38.2937 21.4431L26.5228 33.2347C26.3277 33.4462 26.091 33.615 25.8274 33.7304C25.5639 33.8458 25.2793 33.9054 24.9916 33.9054C24.7039 33.9054 24.4193 33.8458 24.1557 33.7304C23.8922 33.615 23.6554 33.4462 23.4603 33.2347Z" fill="#4D4D4D"/>
</svg>
