<svg width="78" height="78" viewBox="0 0 78 78" fill="none" xmlns="http://www.w3.org/2000/svg">
<rect width="78" height="78" rx="8" fill="#E4EBFC"/>
<path d="M41 25C41 23.8954 40.1046 23 39 23C37.8954 23 37 23.8954 37 25V29C37 30.1046 37.8954 31 39 31C40.1046 31 41 30.1046 41 29V25Z" fill="#3767E1"/>
<path fill-rule="evenodd" clip-rule="evenodd" d="M31 28.1716V23C31 19.6863 33.6863 17 37 17H49C52.3137 17 55 19.6863 55 23V43C55 46.3137 52.3137 49 49 49H46.4415L45.4946 51.8408C45.0036 53.3136 44.1766 54.6519 43.0788 55.7496L39.5858 59.2426C39.2107 59.6177 39 60.1264 39 60.6569V61H35V60.6569C35 59.0656 35.6321 57.5394 36.7574 56.4142L40.2504 52.9212C40.909 52.2625 41.4053 51.4596 41.6998 50.5759L44.5204 42.1143C44.6377 41.7624 44.5461 41.3745 44.2838 41.1123C43.8334 40.6618 43.0796 40.7546 42.7519 41.3009L39.459 46.789C38.636 48.1607 37.1536 49 35.554 49C33.0389 49 31 46.9611 31 44.446V33.8284L29.9289 34.8995C28.0536 36.7749 27 39.3184 27 41.9706V61H23V41.9706C23 38.2575 24.475 34.6966 27.1005 32.0711L31 28.1716ZM35 23C35 21.8954 35.8954 21 37 21H44V36.8412C42.1965 36.6961 40.3483 37.5322 39.3219 39.2429L36.029 44.731C35.9289 44.8979 35.7486 45 35.554 45C35.248 45 35 44.752 35 44.446V23ZM48 39.4898V21H49C50.1046 21 51 21.8954 51 23V43C51 44.1046 50.1046 45 49 45H47.7749L48.3151 43.3792C48.7502 42.0739 48.6201 40.671 48 39.4898Z" fill="#3767E1"/>
</svg>
