<svg width="78" height="78" viewBox="0 0 78 78" fill="none" xmlns="http://www.w3.org/2000/svg">
<rect width="78" height="78" rx="8" fill="#E4EBFC"/>
<rect width="48" height="48" transform="translate(15 15)" fill="#E4EBFC"/>
<path fill-rule="evenodd" clip-rule="evenodd" d="M19 21C19 19.8954 19.8954 19 21 19H49C50.1046 19 51 19.8954 51 21V45.0001H57C58.1045 45.0001 59 45.8955 59 47.0001V53.0001C59 56.3138 56.3137 59 53 59H25C21.6863 59 19 56.3137 19 53V21ZM53 55C54.1046 55 55 54.1046 55 53.0001V49.0001H51V53.0001C51 54.1046 51.8954 55 53 55ZM47.3414 55H25C23.8954 55 23 54.1046 23 53V23H47V46.9908L47 50M47 50L47 53.0001C47 53.7013 47.1203 54.3745 47.3414 55M27 31C27 29.8954 27.8954 29 29 29H41C42.1046 29 43 29.8954 43 31C43 32.1045 42.1046 33 41 33H29C27.8954 33 27 32.1045 27 31ZM27 39.0001C27 37.8955 27.8954 37.0001 29 37.0001H41C42.1046 37.0001 43 37.8955 43 39.0001C43 40.1046 42.1046 41.0001 41 41.0001H29C27.8954 41.0001 27 40.1046 27 39.0001ZM27 47C27 45.8955 27.8954 45 29 45H35C36.1046 45 37 45.8955 37 47C37 48.1046 36.1046 49 35 49H29C27.8954 49 27 48.1046 27 47Z" fill="#3767E1"/>
</svg>
