<svg width="78" height="78" viewBox="0 0 78 78" fill="none" xmlns="http://www.w3.org/2000/svg">
<rect width="78" height="78" rx="8" fill="#E4EBFC"/>
<path d="M57 19H45C44.4696 19 43.9609 19.2107 43.5858 19.5858C43.2107 19.9609 43 20.4696 43 21C43 21.5304 43.2107 22.0391 43.5858 22.4142C43.9609 22.7893 44.4696 23 45 23H55V33C55 33.5304 55.2107 34.0391 55.5858 34.4142C55.9609 34.7893 56.4696 35 57 35C57.5304 35 58.0391 34.7893 58.4142 34.4142C58.7893 34.0391 59 33.5304 59 33V21C59 20.4696 58.7893 19.9609 58.4142 19.5858C58.0391 19.2107 57.5304 19 57 19V19ZM57 43C56.4696 43 55.9609 43.2107 55.5858 43.5858C55.2107 43.9609 55 44.4696 55 45V55H45C44.4696 55 43.9609 55.2107 43.5858 55.5858C43.2107 55.9609 43 56.4696 43 57C43 57.5304 43.2107 58.0391 43.5858 58.4142C43.9609 58.7893 44.4696 59 45 59H57C57.5304 59 58.0391 58.7893 58.4142 58.4142C58.7893 58.0391 59 57.5304 59 57V45C59 44.4696 58.7893 43.9609 58.4142 43.5858C58.0391 43.2107 57.5304 43 57 43ZM39 27C37.4087 27 35.8826 27.6321 34.7574 28.7574C33.6321 29.8826 33 31.4087 33 33V35C31.9391 35 30.9217 35.4214 30.1716 36.1716C29.4214 36.9217 29 37.9391 29 39V47C29 48.0609 29.4214 49.0783 30.1716 49.8284C30.9217 50.5786 31.9391 51 33 51H45C46.0609 51 47.0783 50.5786 47.8284 49.8284C48.5786 49.0783 49 48.0609 49 47V39C49 37.9391 48.5786 36.9217 47.8284 36.1716C47.0783 35.4214 46.0609 35 45 35V33C45 31.4087 44.3679 29.8826 43.2426 28.7574C42.1174 27.6321 40.5913 27 39 27ZM37 33C37 32.4696 37.2107 31.9609 37.5858 31.5858C37.9609 31.2107 38.4696 31 39 31C39.5304 31 40.0391 31.2107 40.4142 31.5858C40.7893 31.9609 41 32.4696 41 33V35H37V33ZM45 47H33V39H45V47ZM21 35C21.5304 35 22.0391 34.7893 22.4142 34.4142C22.7893 34.0391 23 33.5304 23 33V23H33C33.5304 23 34.0391 22.7893 34.4142 22.4142C34.7893 22.0391 35 21.5304 35 21C35 20.4696 34.7893 19.9609 34.4142 19.5858C34.0391 19.2107 33.5304 19 33 19H21C20.4696 19 19.9609 19.2107 19.5858 19.5858C19.2107 19.9609 19 20.4696 19 21V33C19 33.5304 19.2107 34.0391 19.5858 34.4142C19.9609 34.7893 20.4696 35 21 35ZM33 55H23V45C23 44.4696 22.7893 43.9609 22.4142 43.5858C22.0391 43.2107 21.5304 43 21 43C20.4696 43 19.9609 43.2107 19.5858 43.5858C19.2107 43.9609 19 44.4696 19 45V57C19 57.5304 19.2107 58.0391 19.5858 58.4142C19.9609 58.7893 20.4696 59 21 59H33C33.5304 59 34.0391 58.7893 34.4142 58.4142C34.7893 58.0391 35 57.5304 35 57C35 56.4696 34.7893 55.9609 34.4142 55.5858C34.0391 55.2107 33.5304 55 33 55Z" fill="#3767E1"/>
</svg>
