<svg width="78" height="78" viewBox="0 0 78 78" fill="none" xmlns="http://www.w3.org/2000/svg">
<rect width="78" height="78" rx="8" fill="#E4EBFC"/>
<path d="M39 43.8C39.4747 43.8 39.9387 43.6592 40.3334 43.3955C40.728 43.1318 41.0357 42.757 41.2173 42.3184C41.399 41.8799 41.4465 41.3973 41.3539 40.9318C41.2613 40.4662 41.0327 40.0386 40.6971 39.7029C40.3614 39.3673 39.9338 39.1387 39.4682 39.0461C39.0027 38.9535 38.5201 39.001 38.0816 39.1827C37.643 39.3643 37.2682 39.672 37.0045 40.0666C36.7408 40.4613 36.6 40.9253 36.6 41.4C36.6 42.0365 36.8529 42.647 37.3029 43.0971C37.753 43.5471 38.3635 43.8 39 43.8ZM51 43.8C51.4747 43.8 51.9387 43.6592 52.3334 43.3955C52.728 43.1318 53.0357 42.757 53.2173 42.3184C53.399 41.8799 53.4465 41.3973 53.3539 40.9318C53.2613 40.4662 53.0327 40.0386 52.6971 39.7029C52.3614 39.3673 51.9338 39.1387 51.4682 39.0461C51.0027 38.9535 50.5201 39.001 50.0816 39.1827C49.643 39.3643 49.2682 39.672 49.0045 40.0666C48.7408 40.4613 48.6 40.9253 48.6 41.4C48.6 42.0365 48.8529 42.647 49.3029 43.0971C49.753 43.5471 50.3635 43.8 51 43.8ZM39 53.4C39.4747 53.4 39.9387 53.2592 40.3334 52.9955C40.728 52.7318 41.0357 52.357 41.2173 51.9184C41.399 51.4799 41.4465 50.9973 41.3539 50.5318C41.2613 50.0662 41.0327 49.6386 40.6971 49.3029C40.3614 48.9673 39.9338 48.7387 39.4682 48.6461C39.0027 48.5535 38.5201 48.601 38.0816 48.7827C37.643 48.9643 37.2682 49.272 37.0045 49.6666C36.7408 50.0613 36.6 50.5253 36.6 51C36.6 51.6365 36.8529 52.247 37.3029 52.6971C37.753 53.1471 38.3635 53.4 39 53.4ZM51 53.4C51.4747 53.4 51.9387 53.2592 52.3334 52.9955C52.728 52.7318 53.0357 52.357 53.2173 51.9184C53.399 51.4799 53.4465 50.9973 53.3539 50.5318C53.2613 50.0662 53.0327 49.6386 52.6971 49.3029C52.3614 48.9673 51.9338 48.7387 51.4682 48.6461C51.0027 48.5535 50.5201 48.601 50.0816 48.7827C49.643 48.9643 49.2682 49.272 49.0045 49.6666C48.7408 50.0613 48.6 50.5253 48.6 51C48.6 51.6365 48.8529 52.247 49.3029 52.6971C49.753 53.1471 50.3635 53.4 51 53.4ZM27 43.8C27.4747 43.8 27.9387 43.6592 28.3334 43.3955C28.728 43.1318 29.0357 42.757 29.2173 42.3184C29.399 41.8799 29.4465 41.3973 29.3539 40.9318C29.2613 40.4662 29.0327 40.0386 28.6971 39.7029C28.3614 39.3673 27.9338 39.1387 27.4682 39.0461C27.0027 38.9535 26.5201 39.001 26.0816 39.1827C25.643 39.3643 25.2682 39.672 25.0045 40.0666C24.7408 40.4613 24.6 40.9253 24.6 41.4C24.6 42.0365 24.8529 42.647 25.3029 43.0971C25.753 43.5471 26.3635 43.8 27 43.8ZM55.8 19.8H53.4V17.4C53.4 16.7635 53.1471 16.153 52.6971 15.7029C52.247 15.2529 51.6365 15 51 15C50.3635 15 49.753 15.2529 49.3029 15.7029C48.8529 16.153 48.6 16.7635 48.6 17.4V19.8H29.4V17.4C29.4 16.7635 29.1471 16.153 28.6971 15.7029C28.247 15.2529 27.6365 15 27 15C26.3635 15 25.753 15.2529 25.3029 15.7029C24.8529 16.153 24.6 16.7635 24.6 17.4V19.8H22.2C20.2904 19.8 18.4591 20.5586 17.1088 21.9088C15.7586 23.2591 15 25.0904 15 27V55.8C15 57.7096 15.7586 59.5409 17.1088 60.8912C18.4591 62.2414 20.2904 63 22.2 63H55.8C57.7096 63 59.5409 62.2414 60.8912 60.8912C62.2414 59.5409 63 57.7096 63 55.8V27C63 25.0904 62.2414 23.2591 60.8912 21.9088C59.5409 20.5586 57.7096 19.8 55.8 19.8V19.8ZM58.2 55.8C58.2 56.4365 57.9471 57.047 57.4971 57.4971C57.047 57.9471 56.4365 58.2 55.8 58.2H22.2C21.5635 58.2 20.953 57.9471 20.5029 57.4971C20.0529 57.047 19.8 56.4365 19.8 55.8V34.2H58.2V55.8ZM58.2 29.4H19.8V27C19.8 26.3635 20.0529 25.753 20.5029 25.3029C20.953 24.8529 21.5635 24.6 22.2 24.6H55.8C56.4365 24.6 57.047 24.8529 57.4971 25.3029C57.9471 25.753 58.2 26.3635 58.2 27V29.4ZM27 53.4C27.4747 53.4 27.9387 53.2592 28.3334 52.9955C28.728 52.7318 29.0357 52.357 29.2173 51.9184C29.399 51.4799 29.4465 50.9973 29.3539 50.5318C29.2613 50.0662 29.0327 49.6386 28.6971 49.3029C28.3614 48.9673 27.9338 48.7387 27.4682 48.6461C27.0027 48.5535 26.5201 48.601 26.0816 48.7827C25.643 48.9643 25.2682 49.272 25.0045 49.6666C24.7408 50.0613 24.6 50.5253 24.6 51C24.6 51.6365 24.8529 52.247 25.3029 52.6971C25.753 53.1471 26.3635 53.4 27 53.4Z" fill="#3767E1"/>
</svg>
