<svg width="33" height="33" viewBox="0 0 33 33" fill="none" xmlns="http://www.w3.org/2000/svg">
<path d="M24.3619 6.06292C22.2082 3.90918 19.2871 2.69922 16.2412 2.69922C13.1954 2.69922 10.2743 3.90918 8.12054 6.06292C5.96679 8.21666 4.75684 11.1378 4.75684 14.1836C4.75684 17.2295 5.96679 20.1506 8.12054 22.3043L15.2532 29.4505C15.379 29.5774 15.5287 29.6781 15.6937 29.7468C15.8586 29.8155 16.0355 29.8509 16.2142 29.8509C16.3928 29.8509 16.5697 29.8155 16.7347 29.7468C16.8996 29.6781 17.0493 29.5774 17.1751 29.4505L24.3619 22.2366C26.5067 20.0918 27.7116 17.1829 27.7116 14.1498C27.7116 11.1166 26.5067 8.2077 24.3619 6.06292V6.06292ZM22.4265 20.3012L16.2412 26.5135L10.056 20.3012C8.834 19.0781 8.00208 17.5202 7.66536 15.8244C7.32865 14.1286 7.50227 12.371 8.16426 10.7738C8.82625 9.17668 9.9469 7.81164 11.3846 6.85127C12.8222 5.8909 14.5123 5.37832 16.2412 5.37832C17.9701 5.37832 19.6602 5.8909 21.0979 6.85127C22.5356 7.81164 23.6562 9.17668 24.3182 10.7738C24.9802 12.371 25.1538 14.1286 24.8171 15.8244C24.4804 17.5202 23.6485 19.0781 22.4265 20.3012V20.3012ZM12.1809 10.0285C11.0883 11.1245 10.4747 12.609 10.4747 14.1565C10.4747 15.7041 11.0883 17.1886 12.1809 18.2846C12.9926 19.0977 14.0264 19.653 15.1526 19.8808C16.2787 20.1086 17.4471 19.9988 18.5111 19.5651C19.575 19.1314 20.4872 18.3932 21.1332 17.4431C21.7792 16.4929 22.1303 15.3731 22.1423 14.2242C22.1484 13.4571 22.0006 12.6965 21.7077 11.9875C21.4148 11.2785 20.9827 10.6353 20.4369 10.0962C19.9005 9.54748 19.2609 9.11026 18.5548 8.8097C17.8488 8.50913 17.0903 8.35116 16.323 8.34487C15.5557 8.33858 14.7947 8.4841 14.0838 8.77305C13.3729 9.062 12.7262 9.48867 12.1809 10.0285V10.0285ZM18.5286 16.3627C18.0157 16.8834 17.3378 17.2098 16.6109 17.2861C15.884 17.3623 15.1531 17.1837 14.5433 16.7808C13.9335 16.3778 13.4826 15.7756 13.2677 15.077C13.0528 14.3784 13.0872 13.6269 13.3651 12.9508C13.643 12.2748 14.147 11.7163 14.7911 11.3708C15.4352 11.0253 16.1793 10.9142 16.8962 11.0566C17.6131 11.199 18.2583 11.586 18.7214 12.1514C19.1846 12.7169 19.4369 13.4256 19.4354 14.1565C19.4157 14.992 19.0652 15.7855 18.4609 16.3627H18.5286Z" fill="#3767E1"/>
</svg>
