<svg width="33" height="33" viewBox="0 0 33 33" fill="none" xmlns="http://www.w3.org/2000/svg">
<path d="M16.2412 2.70703C13.6162 2.71202 11.0492 3.48027 8.85303 4.91821C6.65686 6.35615 4.92623 8.40172 3.87195 10.8058C2.81768 13.2098 2.48526 15.8685 2.91518 18.4581C3.3451 21.0477 4.51882 23.4564 6.29335 25.3908V25.3908C7.56075 26.7646 9.09897 27.8611 10.8111 28.611C12.5232 29.3609 14.3721 29.748 16.2412 29.748C18.1103 29.748 19.9592 29.3609 21.6713 28.611C23.3834 27.8611 24.9216 26.7646 26.189 25.3908V25.3908C27.9636 23.4564 29.1373 21.0477 29.5672 18.4581C29.9971 15.8685 29.6647 13.2098 28.6104 10.8058C27.5562 8.40172 25.8255 6.35615 23.6294 4.91821C21.4332 3.48027 18.8662 2.71202 16.2412 2.70703V2.70703ZM16.2412 27.0691C13.4375 27.0648 10.7447 25.9732 8.72956 24.0238C9.34138 22.5344 10.3822 21.2605 11.7197 20.364C13.0572 19.4674 14.631 18.9887 16.2412 18.9887C17.8514 18.9887 19.4252 19.4674 20.7627 20.364C22.1002 21.2605 23.141 22.5344 23.7528 24.0238C21.7377 25.9732 19.0449 27.0648 16.2412 27.0691ZM13.5343 13.5346C13.5343 12.9992 13.6931 12.4759 13.9905 12.0307C14.2879 11.5856 14.7107 11.2387 15.2053 11.0338C15.6999 10.8289 16.2442 10.7753 16.7693 10.8797C17.2944 10.9842 17.7767 11.242 18.1553 11.6206C18.5338 11.9991 18.7916 12.4814 18.8961 13.0065C19.0005 13.5316 18.9469 14.0759 18.742 14.5705C18.5372 15.0651 18.1902 15.4879 17.7451 15.7853C17.2999 16.0828 16.7766 16.2415 16.2412 16.2415C15.5233 16.2415 14.8348 15.9563 14.3271 15.4487C13.8195 14.941 13.5343 14.2525 13.5343 13.5346ZM25.5935 21.6553C24.3843 19.5869 22.5231 17.978 20.3015 17.0807C20.9907 16.2993 21.4397 15.3356 21.5947 14.3053C21.7498 13.2751 21.6042 12.2219 21.1755 11.2723C20.7469 10.3227 20.0533 9.51699 19.1781 8.9518C18.3028 8.38661 17.2831 8.08597 16.2412 8.08597C15.1993 8.08597 14.1796 8.38661 13.3043 8.9518C12.4291 9.51699 11.7355 10.3227 11.3069 11.2723C10.8782 12.2219 10.7326 13.2751 10.8877 14.3053C11.0427 15.3356 11.4917 16.2993 12.1809 17.0807C9.9593 17.978 8.09813 19.5869 6.88887 21.6553C5.92514 20.0137 5.41594 18.1451 5.41361 16.2415C5.41361 13.3699 6.55437 10.6158 8.58494 8.58526C10.6155 6.55469 13.3695 5.41393 16.2412 5.41393C19.1129 5.41393 21.8669 6.55469 23.8975 8.58526C25.928 10.6158 27.0688 13.3699 27.0688 16.2415C27.0665 18.1451 26.5573 20.0137 25.5935 21.6553V21.6553Z" fill="#3767E1"/>
</svg>
