<svg width="33" height="33" viewBox="0 0 33 33" fill="none" xmlns="http://www.w3.org/2000/svg">
<path d="M13.5346 17.595C13.2669 17.595 13.0053 17.6743 12.7827 17.8231C12.5601 17.9718 12.3866 18.1832 12.2842 18.4305C12.1818 18.6778 12.155 18.9499 12.2072 19.2125C12.2594 19.475 12.3883 19.7162 12.5776 19.9054C12.7669 20.0947 13.008 20.2236 13.2706 20.2759C13.5331 20.3281 13.8053 20.3013 14.0526 20.1988C14.2999 20.0964 14.5113 19.9229 14.66 19.7003C14.8087 19.4778 14.8881 19.2161 14.8881 18.9484C14.8881 18.5895 14.7455 18.2452 14.4917 17.9914C14.2378 17.7376 13.8936 17.595 13.5346 17.595ZM13.5346 12.1812C13.2669 12.1812 13.0053 12.2605 12.7827 12.4093C12.5601 12.558 12.3866 12.7694 12.2842 13.0167C12.1818 13.264 12.155 13.5361 12.2072 13.7987C12.2594 14.0612 12.3883 14.3024 12.5776 14.4917C12.7669 14.6809 13.008 14.8098 13.2706 14.8621C13.5331 14.9143 13.8053 14.8875 14.0526 14.785C14.2999 14.6826 14.5113 14.5091 14.66 14.2866C14.8087 14.064 14.8881 13.8023 14.8881 13.5346C14.8881 13.1757 14.7455 12.8314 14.4917 12.5776C14.2378 12.3238 13.8936 12.1812 13.5346 12.1812ZM18.9484 12.1812C18.6807 12.1812 18.419 12.2605 18.1965 12.4093C17.9739 12.558 17.8004 12.7694 17.698 13.0167C17.5955 13.264 17.5687 13.5361 17.621 13.7987C17.6732 14.0612 17.8021 14.3024 17.9914 14.4917C18.1807 14.6809 18.4218 14.8098 18.6844 14.8621C18.9469 14.9143 19.219 14.8875 19.4664 14.785C19.7137 14.6826 19.925 14.5091 20.0738 14.2866C20.2225 14.064 20.3019 13.8023 20.3019 13.5346C20.3019 13.1757 20.1593 12.8314 19.9054 12.5776C19.6516 12.3238 19.3074 12.1812 18.9484 12.1812ZM28.4226 17.595C28.7815 17.595 29.1258 17.4524 29.3796 17.1985C29.6334 16.9447 29.776 16.6005 29.776 16.2415C29.776 15.8826 29.6334 15.5383 29.3796 15.2845C29.1258 15.0307 28.7815 14.8881 28.4226 14.8881H25.7157V12.1812H28.4226C28.7815 12.1812 29.1258 12.0386 29.3796 11.7848C29.6334 11.5309 29.776 11.1867 29.776 10.8277C29.776 10.4688 29.6334 10.1245 29.3796 9.87069C29.1258 9.61687 28.7815 9.47427 28.4226 9.47427H25.472C25.2699 8.90664 24.944 8.3911 24.518 7.96504C24.0919 7.53899 23.5764 7.21309 23.0088 7.011V4.06048C23.0088 3.70152 22.8662 3.35727 22.6123 3.10345C22.3585 2.84963 22.0143 2.70703 21.6553 2.70703C21.2964 2.70703 20.9521 2.84963 20.6983 3.10345C20.4445 3.35727 20.3019 3.70152 20.3019 4.06048V6.76738H17.595V4.06048C17.595 3.70152 17.4524 3.35727 17.1985 3.10345C16.9447 2.84963 16.6005 2.70703 16.2415 2.70703C15.8826 2.70703 15.5383 2.84963 15.2845 3.10345C15.0307 3.35727 14.8881 3.70152 14.8881 4.06048V6.76738H12.1812V4.06048C12.1812 3.70152 12.0386 3.35727 11.7848 3.10345C11.5309 2.84963 11.1867 2.70703 10.8277 2.70703C10.4688 2.70703 10.1245 2.84963 9.87069 3.10345C9.61687 3.35727 9.47427 3.70152 9.47427 4.06048V7.011C8.90664 7.21309 8.3911 7.53899 7.96504 7.96504C7.53899 8.3911 7.21309 8.90664 7.011 9.47427H4.06048C3.70152 9.47427 3.35727 9.61687 3.10345 9.87069C2.84963 10.1245 2.70703 10.4688 2.70703 10.8277C2.70703 11.1867 2.84963 11.5309 3.10345 11.7848C3.35727 12.0386 3.70152 12.1812 4.06048 12.1812H6.76738V14.8881H4.06048C3.70152 14.8881 3.35727 15.0307 3.10345 15.2845C2.84963 15.5383 2.70703 15.8826 2.70703 16.2415C2.70703 16.6005 2.84963 16.9447 3.10345 17.1985C3.35727 17.4524 3.70152 17.595 4.06048 17.595H6.76738V20.3019H4.06048C3.70152 20.3019 3.35727 20.4445 3.10345 20.6983C2.84963 20.9521 2.70703 21.2964 2.70703 21.6553C2.70703 22.0143 2.84963 22.3585 3.10345 22.6123C3.35727 22.8662 3.70152 23.0088 4.06048 23.0088H7.011C7.21309 23.5764 7.53899 24.0919 7.96504 24.518C8.3911 24.944 8.90664 25.2699 9.47427 25.472V28.4226C9.47427 28.7815 9.61687 29.1258 9.87069 29.3796C10.1245 29.6334 10.4688 29.776 10.8277 29.776C11.1867 29.776 11.5309 29.6334 11.7848 29.3796C12.0386 29.1258 12.1812 28.7815 12.1812 28.4226V25.7157H14.8881V28.4226C14.8881 28.7815 15.0307 29.1258 15.2845 29.3796C15.5383 29.6334 15.8826 29.776 16.2415 29.776C16.6005 29.776 16.9447 29.6334 17.1985 29.3796C17.4524 29.1258 17.595 28.7815 17.595 28.4226V25.7157H20.3019V28.4226C20.3019 28.7815 20.4445 29.1258 20.6983 29.3796C20.9521 29.6334 21.2964 29.776 21.6553 29.776C22.0143 29.776 22.3585 29.6334 22.6123 29.3796C22.8662 29.1258 23.0088 28.7815 23.0088 28.4226V25.472C23.5764 25.2699 24.0919 24.944 24.518 24.518C24.944 24.0919 25.2699 23.5764 25.472 23.0088H28.4226C28.7815 23.0088 29.1258 22.8662 29.3796 22.6123C29.6334 22.3585 29.776 22.0143 29.776 21.6553C29.776 21.2964 29.6334 20.9521 29.3796 20.6983C29.1258 20.4445 28.7815 20.3019 28.4226 20.3019H25.7157V17.595H28.4226ZM23.0088 21.6553C23.0088 22.0143 22.8662 22.3585 22.6123 22.6123C22.3585 22.8662 22.0143 23.0088 21.6553 23.0088H10.8277C10.4688 23.0088 10.1245 22.8662 9.87069 22.6123C9.61687 22.3585 9.47427 22.0143 9.47427 21.6553V10.8277C9.47427 10.4688 9.61687 10.1245 9.87069 9.87069C10.1245 9.61687 10.4688 9.47427 10.8277 9.47427H21.6553C22.0143 9.47427 22.3585 9.61687 22.6123 9.87069C22.8662 10.1245 23.0088 10.4688 23.0088 10.8277V21.6553ZM18.9484 17.595C18.6807 17.595 18.419 17.6743 18.1965 17.8231C17.9739 17.9718 17.8004 18.1832 17.698 18.4305C17.5955 18.6778 17.5687 18.9499 17.621 19.2125C17.6732 19.475 17.8021 19.7162 17.9914 19.9054C18.1807 20.0947 18.4218 20.2236 18.6844 20.2759C18.9469 20.3281 19.219 20.3013 19.4664 20.1988C19.7137 20.0964 19.925 19.9229 20.0738 19.7003C20.2225 19.4778 20.3019 19.2161 20.3019 18.9484C20.3019 18.5895 20.1593 18.2452 19.9054 17.9914C19.6516 17.7376 19.3074 17.595 18.9484 17.595Z" fill="#3767E1"/>
</svg>
