<svg width="33" height="33" viewBox="0 0 33 33" fill="none" xmlns="http://www.w3.org/2000/svg">
<path d="M18.9482 24.3631C19.3072 24.3631 19.6514 24.2205 19.9052 23.9667C20.159 23.7128 20.3016 23.3686 20.3016 23.0096V20.3027C20.3016 19.9438 20.159 19.5995 19.9052 19.3457C19.6514 19.0919 19.3072 18.9493 18.9482 18.9493C18.5892 18.9493 18.245 19.0919 17.9912 19.3457C17.7373 19.5995 17.5947 19.9438 17.5947 20.3027V23.0096C17.5947 23.3686 17.7373 23.7128 17.9912 23.9667C18.245 24.2205 18.5892 24.3631 18.9482 24.3631ZM13.5344 24.3631C13.8934 24.3631 14.2376 24.2205 14.4914 23.9667C14.7453 23.7128 14.8878 23.3686 14.8878 23.0096V20.3027C14.8878 19.9438 14.7453 19.5995 14.4914 19.3457C14.2376 19.0919 13.8934 18.9493 13.5344 18.9493C13.1754 18.9493 12.8312 19.0919 12.5774 19.3457C12.3235 19.5995 12.181 19.9438 12.181 20.3027V23.0096C12.181 23.3686 12.3235 23.7128 12.5774 23.9667C12.8312 24.2205 13.1754 24.3631 13.5344 24.3631ZM25.7154 8.12169H23.8477L21.5062 3.45229C21.4347 3.28048 21.3285 3.12527 21.1942 2.99636C21.06 2.86745 20.9006 2.76761 20.726 2.70308C20.5514 2.63856 20.3654 2.61073 20.1796 2.62134C19.9938 2.63195 19.8122 2.68077 19.6461 2.76475C19.48 2.84873 19.333 2.96607 19.2143 3.10942C19.0956 3.25278 19.0077 3.41907 18.9562 3.59792C18.9047 3.77676 18.8906 3.96431 18.9148 4.14884C18.9391 4.33337 19.0011 4.51093 19.0971 4.6704L20.816 8.12169H11.6666L13.3855 4.6704C13.5169 4.35492 13.5241 4.00142 13.4056 3.68087C13.2871 3.36033 13.0518 3.09647 12.7468 2.94227C12.4418 2.78807 12.0898 2.75495 11.7614 2.84955C11.433 2.94415 11.1526 3.15948 10.9764 3.45229L8.63492 8.12169H6.76716C5.81053 8.13624 4.88976 8.48813 4.16725 9.1153C3.44474 9.74247 2.96691 10.6046 2.81803 11.5497C2.66914 12.4948 2.85877 13.4621 3.35347 14.281C3.84817 15.1 4.61616 15.7179 5.52199 16.0258L6.52354 26.1226C6.62454 27.1276 7.09651 28.0589 7.84731 28.7346C8.5981 29.4103 9.5738 29.7819 10.5839 29.7769H21.9258C22.9359 29.7819 23.9116 29.4103 24.6624 28.7346C25.4132 28.0589 25.8851 27.1276 25.9861 26.1226L26.9877 16.0258C27.8955 15.717 28.6647 15.0968 29.159 14.2751C29.6534 13.4535 29.841 12.4834 29.6886 11.5366C29.5362 10.5899 29.0537 9.72768 28.3265 9.10264C27.5993 8.4776 26.6743 8.1301 25.7154 8.12169V8.12169ZM23.2657 25.8519C23.232 26.1869 23.0747 26.4973 22.8244 26.7226C22.5742 26.9478 22.2489 27.0717 21.9122 27.07H10.5703C10.2337 27.0717 9.90842 26.9478 9.65816 26.7226C9.40789 26.4973 9.25057 26.1869 9.2169 25.8519L8.25595 16.2424H24.2266L23.2657 25.8519ZM25.7154 13.5355H6.76716C6.4082 13.5355 6.06395 13.3929 5.81013 13.1391C5.55631 12.8852 5.41371 12.541 5.41371 12.182C5.41371 11.8231 5.55631 11.4788 5.81013 11.225C6.06395 10.9712 6.4082 10.8286 6.76716 10.8286H25.7154C26.0744 10.8286 26.4186 10.9712 26.6725 11.225C26.9263 11.4788 27.0689 11.8231 27.0689 12.182C27.0689 12.541 26.9263 12.8852 26.6725 13.1391C26.4186 13.3929 26.0744 13.5355 25.7154 13.5355Z" fill="#3767E1"/>
</svg>
