<svg width="33" height="33" viewBox="0 0 33 33" fill="none" xmlns="http://www.w3.org/2000/svg">
<path d="M23.5231 19.7324C23.2753 19.628 23.002 19.5997 22.7381 19.6512C22.6533 19.666 22.5712 19.6934 22.4944 19.7324C22.4082 19.762 22.3263 19.803 22.2508 19.8542L22.0478 20.0166C21.8005 20.276 21.6603 20.6192 21.6553 20.9776C21.6543 21.1557 21.6884 21.3323 21.7558 21.4972C21.8231 21.6621 21.9224 21.8121 22.0478 21.9385C22.179 22.0621 22.33 22.1627 22.4944 22.2363C22.7422 22.3382 23.0147 22.3644 23.2773 22.3114C23.5399 22.2584 23.7809 22.1286 23.9697 21.9385C24.0893 21.807 24.1854 21.6559 24.2539 21.4919C24.3297 21.3313 24.3668 21.1551 24.3622 20.9776C24.3572 20.6192 24.217 20.276 23.9697 20.0166C23.8427 19.8913 23.6904 19.7944 23.5231 19.7324ZM27.0691 14.454V10.15C27.0691 9.07312 26.6413 8.04036 25.8799 7.27889C25.1184 6.51743 24.0856 6.08965 23.0088 6.08965H21.9531L20.9109 2.94965C20.8201 2.68082 20.6471 2.44733 20.4164 2.28218C20.1857 2.11703 19.9089 2.02857 19.6251 2.0293H12.8579C12.5742 2.02857 12.2974 2.11703 12.0666 2.28218C11.8359 2.44733 11.6629 2.68082 11.5721 2.94965L10.53 6.08965H9.47427C8.3974 6.08965 7.36464 6.51743 6.60318 7.27889C5.84171 8.04036 5.41393 9.07312 5.41393 10.15V14.454C4.62412 14.7332 3.94002 15.2499 3.4554 15.9332C2.97079 16.6165 2.70939 17.433 2.70703 18.2707V26.3914C2.70703 26.7503 2.84963 27.0946 3.10345 27.3484C3.35727 27.6022 3.70152 27.7448 4.06048 27.7448H5.41393V29.0983C5.41393 29.4572 5.55652 29.8015 5.81034 30.0553C6.06416 30.3091 6.40842 30.4517 6.76738 30.4517C7.12633 30.4517 7.47059 30.3091 7.72441 30.0553C7.97823 29.8015 8.12082 29.4572 8.12082 29.0983V27.7448H24.3622V29.0983C24.3622 29.4572 24.5048 29.8015 24.7586 30.0553C25.0124 30.3091 25.3567 30.4517 25.7157 30.4517C26.0746 30.4517 26.4189 30.3091 26.6727 30.0553C26.9265 29.8015 27.0691 29.4572 27.0691 29.0983V27.7448H28.4226C28.7815 27.7448 29.1258 27.6022 29.3796 27.3484C29.6334 27.0946 29.776 26.7503 29.776 26.3914V18.2707C29.7736 17.433 29.5122 16.6165 29.0276 15.9332C28.543 15.2499 27.8589 14.7332 27.0691 14.454V14.454ZM13.8324 4.7362H18.6507L19.0973 6.08965H13.3857L13.8324 4.7362ZM8.12082 10.15C8.12082 9.79103 8.26342 9.44678 8.51724 9.19296C8.77106 8.93914 9.11532 8.79654 9.47427 8.79654H23.0088C23.3677 8.79654 23.712 8.93914 23.9658 9.19296C24.2196 9.44678 24.3622 9.79103 24.3622 10.15V14.2103H8.12082V10.15ZM27.0691 25.0379H5.41393V18.2707C5.41393 17.9117 5.55652 17.5675 5.81034 17.3136C6.06416 17.0598 6.40842 16.9172 6.76738 16.9172H25.7157C26.0746 16.9172 26.4189 17.0598 26.6727 17.3136C26.9265 17.5675 27.0691 17.9117 27.0691 18.2707V25.0379ZM8.95996 19.7324C8.79383 19.7968 8.64204 19.8934 8.51332 20.0166C8.266 20.276 8.12581 20.6192 8.12082 20.9776C8.11971 21.2004 8.17362 21.42 8.27777 21.617C8.38192 21.814 8.5331 21.9822 8.71788 22.1067C8.90265 22.2313 9.11532 22.3082 9.33699 22.3308C9.55866 22.3534 9.78248 22.321 9.98858 22.2363C10.1531 22.1627 10.304 22.0621 10.4352 21.9385C10.5607 21.8121 10.6599 21.6621 10.7273 21.4972C10.7946 21.3323 10.8288 21.1557 10.8277 20.9776C10.8227 20.6192 10.6825 20.276 10.4352 20.0166C10.2449 19.8288 10.0032 19.7016 9.74065 19.651C9.4781 19.6004 9.20644 19.6288 8.95996 19.7324ZM17.595 19.6241H14.8881C14.5291 19.6241 14.1849 19.7667 13.931 20.0205C13.6772 20.2744 13.5346 20.6186 13.5346 20.9776C13.5346 21.3365 13.6772 21.6808 13.931 21.9346C14.1849 22.1884 14.5291 22.331 14.8881 22.331H17.595C17.9539 22.331 18.2982 22.1884 18.552 21.9346C18.8058 21.6808 18.9484 21.3365 18.9484 20.9776C18.9484 20.6186 18.8058 20.2744 18.552 20.0205C18.2982 19.7667 17.9539 19.6241 17.595 19.6241Z" fill="#3767E1"/>
</svg>
