<svg width="33" height="33" viewBox="0 0 33 33" fill="none" xmlns="http://www.w3.org/2000/svg">
<path d="M28.5853 13.3727L19.1112 3.89855C18.3366 3.16361 17.3096 2.75391 16.2418 2.75391C15.1741 2.75391 14.1471 3.16361 13.3725 3.89855L3.8984 13.3727C3.13803 14.134 2.71094 15.166 2.71094 16.242C2.71094 17.318 3.13803 18.35 3.8984 19.1113L13.3725 28.5854C14.1339 29.3458 15.1659 29.7729 16.2418 29.7729C17.3178 29.7729 18.3498 29.3458 19.1112 28.5854L28.5853 19.1113C29.3457 18.35 29.7728 17.318 29.7728 16.242C29.7728 15.166 29.3457 14.134 28.5853 13.3727V13.3727ZM26.6769 17.2029L17.2028 26.6771C17.077 26.8039 16.9273 26.9046 16.7624 26.9733C16.5974 27.0421 16.4205 27.0774 16.2418 27.0774C16.0632 27.0774 15.8863 27.0421 15.7213 26.9733C15.5564 26.9046 15.4067 26.8039 15.2809 26.6771L5.80676 17.2029C5.6799 17.0771 5.57922 16.9274 5.5105 16.7625C5.44179 16.5976 5.40641 16.4207 5.40641 16.242C5.40641 16.0633 5.44179 15.8864 5.5105 15.7215C5.57922 15.5566 5.6799 15.4069 5.80676 15.281L15.2809 5.80691C15.4067 5.68005 15.5564 5.57936 15.7213 5.51065C15.8863 5.44194 16.0632 5.40656 16.2418 5.40656C16.4205 5.40656 16.5974 5.44194 16.7624 5.51065C16.9273 5.57936 17.077 5.68005 17.2028 5.80691L26.6769 15.281C26.8038 15.4069 26.9045 15.5566 26.9732 15.7215C27.0419 15.8864 27.0773 16.0633 27.0773 16.242C27.0773 16.4207 27.0419 16.5976 26.9732 16.7625C26.9045 16.9274 26.8038 17.0771 26.6769 17.2029ZM19.233 12.5742C18.9781 12.3193 18.6324 12.1761 18.272 12.1761C17.9116 12.1761 17.5659 12.3193 17.3111 12.5742C17.0562 12.829 16.913 13.1747 16.913 13.5351C16.913 13.8955 17.0562 14.2412 17.3111 14.496L17.7171 14.8885H12.8582C12.4993 14.8885 12.155 15.0311 11.9012 15.285C11.6474 15.5388 11.5048 15.883 11.5048 16.242V18.9489C11.5048 19.3078 11.6474 19.6521 11.9012 19.9059C12.155 20.1597 12.4993 20.3023 12.8582 20.3023C13.2172 20.3023 13.5614 20.1597 13.8153 19.9059C14.0691 19.6521 14.2117 19.3078 14.2117 18.9489V17.5954H17.7171L17.3111 17.9879C17.1842 18.1138 17.0835 18.2635 17.0148 18.4284C16.9461 18.5933 16.9107 18.7702 16.9107 18.9489C16.9107 19.1276 16.9461 19.3045 17.0148 19.4694C17.0835 19.6343 17.1842 19.784 17.3111 19.9098C17.4369 20.0367 17.5866 20.1374 17.7515 20.2061C17.9164 20.2748 18.0933 20.3102 18.272 20.3102C18.4507 20.3102 18.6276 20.2748 18.7925 20.2061C18.9575 20.1374 19.1071 20.0367 19.233 19.9098L21.9399 17.2029C22.0667 17.0771 22.1674 16.9274 22.2361 16.7625C22.3048 16.5976 22.3402 16.4207 22.3402 16.242C22.3402 16.0633 22.3048 15.8864 22.2361 15.7215C22.1674 15.5566 22.0667 15.4069 21.9399 15.281L19.233 12.5742Z" fill="#3767E1"/>
</svg>
