<svg width="33" height="33" viewBox="0 0 33 33" fill="none" xmlns="http://www.w3.org/2000/svg">
<path d="M24.3623 1.35352H13.5347C12.4578 1.35352 11.4251 1.7813 10.6636 2.54276C9.90213 3.30423 9.47434 4.33699 9.47434 5.41386H8.12089C7.04402 5.41386 6.01126 5.84165 5.24979 6.60311C4.48833 7.36457 4.06055 8.39734 4.06055 9.47421V13.5346C4.06055 14.6114 4.48833 15.6442 5.24979 16.4056C6.01126 17.1671 7.04402 17.5949 8.12089 17.5949H16.2416C16.6005 17.5949 16.9448 17.7375 17.1986 17.9913C17.4524 18.2451 17.595 18.5894 17.595 18.9483V20.3018C16.8771 20.3018 16.1886 20.587 15.681 21.0946C15.1733 21.6023 14.8881 22.2908 14.8881 23.0087V28.4225C14.8881 29.1404 15.1733 29.8289 15.681 30.3365C16.1886 30.8442 16.8771 31.1294 17.595 31.1294H20.3019C21.0198 31.1294 21.7084 30.8442 22.216 30.3365C22.7236 29.8289 23.0088 29.1404 23.0088 28.4225V23.0087C23.0088 22.2908 22.7236 21.6023 22.216 21.0946C21.7084 20.587 21.0198 20.3018 20.3019 20.3018V18.9483C20.3019 17.8715 19.8741 16.8387 19.1127 16.0772C18.3512 15.3158 17.3185 14.888 16.2416 14.888H8.12089C7.76194 14.888 7.41768 14.7454 7.16386 14.4916C6.91004 14.2378 6.76744 13.8935 6.76744 13.5346V9.47421C6.76744 9.11525 6.91004 8.77099 7.16386 8.51717C7.41768 8.26335 7.76194 8.12076 8.12089 8.12076H9.47434C9.47434 9.19763 9.90213 10.2304 10.6636 10.9919C11.4251 11.7533 12.4578 12.1811 13.5347 12.1811H24.3623C25.4391 12.1811 26.4719 11.7533 27.2334 10.9919C27.9948 10.2304 28.4226 9.19763 28.4226 8.12076V5.41386C28.4226 4.33699 27.9948 3.30423 27.2334 2.54276C26.4719 1.7813 25.4391 1.35352 24.3623 1.35352V1.35352ZM20.3019 23.0087V28.4225H17.595V23.0087H20.3019ZM25.7157 8.12076C25.7157 8.47971 25.5731 8.82397 25.3193 9.07779C25.0655 9.33161 24.7212 9.47421 24.3623 9.47421H13.5347C13.1757 9.47421 12.8315 9.33161 12.5777 9.07779C12.3238 8.82397 12.1812 8.47971 12.1812 8.12076V5.41386C12.1812 5.0549 12.3238 4.71065 12.5777 4.45683C12.8315 4.20301 13.1757 4.06041 13.5347 4.06041H24.3623C24.7212 4.06041 25.0655 4.20301 25.3193 4.45683C25.5731 4.71065 25.7157 5.0549 25.7157 5.41386V8.12076Z" fill="#3767E1"/>
</svg>
