<svg width="20" height="20" viewBox="0 0 20 20" fill="none" xmlns="http://www.w3.org/2000/svg">
<path d="M10.2497 10.1827C10.6943 9.79779 11.051 9.32175 11.2954 8.78687C11.5398 8.25198 11.6663 7.67077 11.6663 7.08268C11.6663 5.97761 11.2274 4.91781 10.446 4.1364C9.66455 3.355 8.60474 2.91602 7.49967 2.91602C6.39461 2.91602 5.3348 3.355 4.5534 4.1364C3.77199 4.91781 3.33301 5.97761 3.33301 7.08268C3.333 7.67077 3.45951 8.25198 3.70395 8.78687C3.94838 9.32175 4.30503 9.79779 4.74967 10.1827C3.58312 10.7109 2.5934 11.564 1.89882 12.6398C1.20425 13.7157 0.834234 14.9688 0.833008 16.2494C0.833008 16.4704 0.920805 16.6823 1.07709 16.8386C1.23337 16.9949 1.44533 17.0827 1.66634 17.0827C1.88735 17.0827 2.09932 16.9949 2.2556 16.8386C2.41188 16.6823 2.49967 16.4704 2.49967 16.2494C2.49967 14.9233 3.02646 13.6515 3.96414 12.7138C4.90182 11.7761 6.17359 11.2493 7.49967 11.2493C8.82576 11.2493 10.0975 11.7761 11.0352 12.7138C11.9729 13.6515 12.4997 14.9233 12.4997 16.2494C12.4997 16.4704 12.5875 16.6823 12.7438 16.8386C12.9 16.9949 13.112 17.0827 13.333 17.0827C13.554 17.0827 13.766 16.9949 13.9223 16.8386C14.0785 16.6823 14.1663 16.4704 14.1663 16.2494C14.1651 14.9688 13.7951 13.7157 13.1005 12.6398C12.406 11.564 11.4162 10.7109 10.2497 10.1827V10.1827ZM7.49967 9.58268C7.00522 9.58268 6.52187 9.43606 6.11075 9.16136C5.69963 8.88665 5.37919 8.49621 5.18998 8.03939C5.00076 7.58258 4.95125 7.07991 5.04771 6.59496C5.14417 6.11 5.38228 5.66455 5.73191 5.31492C6.08154 4.96528 6.527 4.72718 7.01195 4.63072C7.4969 4.53426 7.99957 4.58376 8.45638 4.77298C8.9132 4.9622 9.30364 5.28263 9.57835 5.69376C9.85305 6.10488 9.99967 6.58823 9.99967 7.08268C9.99967 7.74572 9.73628 8.38161 9.26744 8.85045C8.7986 9.31929 8.16272 9.58268 7.49967 9.58268ZM15.6163 9.84935C16.1496 9.24879 16.498 8.5069 16.6195 7.71297C16.741 6.91904 16.6304 6.10691 16.3011 5.37435C15.9718 4.64179 15.4378 4.02001 14.7634 3.58387C14.089 3.14772 13.3028 2.9158 12.4997 2.91602C12.2787 2.91602 12.0667 3.00381 11.9104 3.16009C11.7541 3.31637 11.6663 3.52834 11.6663 3.74935C11.6663 3.97036 11.7541 4.18232 11.9104 4.3386C12.0667 4.49489 12.2787 4.58268 12.4997 4.58268C13.1627 4.58268 13.7986 4.84607 14.2674 5.31492C14.7363 5.78376 14.9997 6.41964 14.9997 7.08268C14.9985 7.52038 14.8824 7.9501 14.6631 8.32887C14.4437 8.70763 14.1287 9.02217 13.7497 9.24102C13.6261 9.31228 13.5229 9.41407 13.45 9.53663C13.377 9.6592 13.3367 9.79843 13.333 9.94102C13.3295 10.0825 13.3621 10.2225 13.4277 10.3479C13.4933 10.4733 13.5898 10.5799 13.708 10.6577L14.033 10.8744L14.1413 10.9327C15.1458 11.4091 15.9933 12.1627 16.5838 13.1046C17.1744 14.0465 17.4835 15.1376 17.4747 16.2494C17.4747 16.4704 17.5625 16.6823 17.7188 16.8386C17.875 16.9949 18.087 17.0827 18.308 17.0827C18.529 17.0827 18.741 16.9949 18.8973 16.8386C19.0535 16.6823 19.1413 16.4704 19.1413 16.2494C19.1482 14.9705 18.8279 13.7112 18.2109 12.5911C17.5939 11.4709 16.7008 10.5271 15.6163 9.84935V9.84935Z" fill="#767676"/>
</svg>
