<svg width="149" height="57" viewBox="0 0 149 57" fill="none" xmlns="http://www.w3.org/2000/svg">
<path d="M48.6556 23.9722C47.1717 22.5263 46.4297 20.4906 46.4297 17.8842C46.4297 16.229 46.7721 14.7641 47.457 13.5085C48.1229 12.2718 49.1312 11.2635 50.3488 10.5977C51.6045 9.91276 53.0504 9.57031 54.7246 9.57031C59.2525 9.57031 61.8589 11.7582 62.5438 16.1529H58.3393C58.1871 15.1256 57.8256 14.3456 57.2549 13.8319C56.6841 13.3182 55.847 13.0519 54.7816 13.0519C53.507 13.0519 52.4986 13.4894 51.7376 14.3456C50.9766 15.2017 50.5961 16.3812 50.5961 17.8842C50.5961 19.3681 50.9766 20.5287 51.7186 21.3658C52.4606 22.2219 53.507 22.6404 54.8197 22.6404C55.9041 22.6404 56.7602 22.3741 57.388 21.8223C58.0159 21.2897 58.3964 20.4906 58.5295 19.4633H62.734C62.6579 20.6809 62.2965 21.8604 61.6687 22.9068C61.0599 23.9151 60.1657 24.6951 58.9861 25.2659C57.8066 25.8366 56.4178 26.122 54.8006 26.122C52.1942 26.141 50.1396 25.4181 48.6556 23.9722Z" fill="#E80537"/>
<path d="M81.8731 9.96958V25.7222H77.8018V20.7567C77.6496 22.6021 77.0979 23.9719 76.1657 24.828C75.2334 25.6841 73.9397 26.1217 72.3417 26.1217C70.8577 26.1217 69.583 25.7983 68.4796 25.1324C67.3761 24.4856 66.52 23.5343 65.9112 22.2977C65.3024 21.0611 64.998 19.5581 64.998 17.8269C64.998 16.1146 65.3215 14.6307 65.9683 13.375C66.6152 12.1194 67.4903 11.1681 68.5937 10.5213C69.7352 9.85543 71.0289 9.51298 72.3417 9.532C73.9207 9.532 75.1764 9.96958 76.1276 10.8257C77.0789 11.7008 77.6306 13.0516 77.8018 14.878V9.95055L81.8731 9.96958ZM76.8505 21.3845C77.5925 20.5284 77.954 19.3489 77.954 17.8839C77.954 16.3619 77.5925 15.1824 76.8505 14.3263C76.1086 13.4702 75.0812 13.0326 73.7875 13.0326C72.3987 13.0326 71.2953 13.4511 70.4392 14.3073C69.583 15.1634 69.1645 16.3429 69.1645 17.8459C69.1645 19.3489 69.6021 20.5094 70.4582 21.3845C71.3143 22.2406 72.4368 22.6782 73.7875 22.6782C75.0812 22.6592 76.1086 22.2406 76.8505 21.3845Z" fill="#E80537"/>
<path d="M80.8643 33.0655V28.9942C81.6443 29.2415 82.4624 29.3556 83.2804 29.3556C84.2888 29.3556 85.0117 29.1273 85.4302 28.6898C85.8488 28.2522 86.0771 27.4531 86.0771 26.3116V9.98828H90.1484V26.5209C90.1484 28.2332 89.9201 29.603 89.4635 30.6113C89.045 31.5816 88.284 32.3425 87.3327 32.7801C86.3625 33.2177 85.0878 33.446 83.4897 33.446C82.4243 33.427 81.5682 33.2938 80.8643 33.0655Z" fill="#E80537"/>
<path d="M108.108 9.9707V25.7233H104.037V20.3773H104.018C104.018 21.7091 103.79 22.7935 103.352 23.6496C102.915 24.5057 102.325 25.1335 101.602 25.5331C100.879 25.9326 100.08 26.1419 99.2618 26.1419C97.5686 26.1419 96.2939 25.6662 95.4378 24.734C94.5816 23.7828 94.1631 22.3179 94.1631 20.3202V9.98972H98.2344V19.2929C98.2344 20.4154 98.4627 21.2334 98.9193 21.7471C99.3759 22.2608 100.08 22.5271 101.012 22.5271C101.83 22.5271 102.61 22.2037 103.162 21.5949C103.771 20.9861 104.075 20.13 104.075 19.0646V9.98972H108.108V9.9707Z" fill="#E80537"/>
<path d="M86.4388 6.69778C85.9822 6.2602 85.7158 5.65141 85.7158 5.02359C85.6968 4.37674 85.9631 3.76794 86.4388 3.31135C86.8763 2.85475 87.5042 2.60742 88.132 2.60742C88.7598 2.60742 89.3686 2.85475 89.8062 3.31135C90.2627 3.76794 90.5101 4.37674 90.5101 5.02359C90.5101 6.33631 89.4447 7.4017 88.132 7.4017C87.4851 7.4017 86.8763 7.15437 86.4388 6.69778Z" fill="#59D159"/>
<path d="M58.1866 35.5586V52.7H56.3031V50.3409C55.447 51.9771 53.925 52.9283 51.9464 52.9283C48.6361 52.9283 46.4482 50.5312 46.4482 46.9355C46.4482 43.3398 48.6551 40.9426 51.9464 40.9426C53.925 40.9426 55.447 41.8939 56.3031 43.53V35.5586H58.1866ZM56.3983 46.9355C56.3983 44.0247 55.1236 42.6549 52.384 42.6549C49.6444 42.6549 48.3698 44.0247 48.3698 46.9355C48.3698 49.8463 49.6444 51.2161 52.384 51.2161C55.1236 51.2161 56.3983 49.8463 56.3983 46.9355Z" fill="#E80537"/>
<path d="M71.9794 47.526H63.0377C63.1519 50.2465 64.2553 51.3119 66.7856 51.3119C68.6691 51.3119 69.4301 50.8553 69.9628 49.3333L71.7321 50.0182C70.933 52.0539 68.9354 52.929 66.7856 52.929C63.3421 52.929 61.1162 50.57 61.1162 46.9362C61.1162 43.3595 63.4943 40.9434 66.6905 40.9434C69.7916 40.9434 71.9984 43.0932 71.9984 46.6128C71.9984 46.9552 71.9985 47.1074 71.9794 47.526ZM63.0758 45.985H70.134C69.9818 43.5117 69.0115 42.5415 66.6905 42.5415C64.4646 42.5224 63.285 43.6259 63.0758 45.985Z" fill="#E80537"/>
<path d="M73.9199 49.389L75.7844 48.7802C76.1078 50.6446 77.04 51.2724 78.9425 51.2724C80.6738 51.2724 81.5109 50.7778 81.5109 49.7124C81.5109 48.7421 81.1684 48.3997 79.7796 48.1143L77.5347 47.6767C75.8795 47.3533 74.3195 46.5352 74.3195 44.4045C74.3195 42.3307 76.0127 40.9609 78.562 40.9609C80.7689 40.9609 82.6904 41.8361 83.1851 44.6137L81.3206 45.1274C81.0733 42.9395 80.1411 42.6351 78.6191 42.6351C76.9829 42.6351 76.222 43.1488 76.222 44.2713C76.222 45.2035 76.5644 45.6411 77.6108 45.8313L80.5026 46.4021C82.1958 46.7255 83.3563 47.5816 83.3563 49.408C83.3563 51.5388 81.5489 52.9657 78.8093 52.9657C76.3171 52.9276 74.4526 51.7481 73.9199 49.389Z" fill="#E80537"/>
<path d="M97.9678 46.9349C97.9678 50.5306 95.761 52.9277 92.4696 52.9277C90.4911 52.9277 88.9691 51.9765 88.113 50.3403V56.8468H86.2295V41.1894H88.113V43.5484C88.9691 41.9123 90.4911 40.961 92.4696 40.961C95.78 40.942 97.9678 43.3392 97.9678 46.9349ZM96.0463 46.9349C96.0463 44.0241 94.7717 42.6543 92.0321 42.6543C89.2925 42.6543 88.0178 44.0241 88.0178 46.9349C88.0178 49.8457 89.2925 51.2155 92.0321 51.2155C94.7717 51.2155 96.0463 49.8457 96.0463 46.9349Z" fill="#E80537"/>
<path d="M110.809 47.526H101.867C101.981 50.2465 103.085 51.3119 105.615 51.3119C107.499 51.3119 108.26 50.8553 108.792 49.3333L110.562 50.0182C109.763 52.0539 107.765 52.929 105.615 52.929C102.172 52.929 99.9268 50.57 99.9268 46.9362C99.9268 43.3595 102.305 40.9434 105.501 40.9434C108.602 40.9434 110.809 43.0932 110.809 46.6128C110.828 46.9552 110.828 47.1074 110.809 47.526ZM101.886 45.985H108.945C108.792 43.5117 107.822 42.5415 105.501 42.5415C103.294 42.5224 102.115 43.6259 101.886 45.985Z" fill="#E80537"/>
<path d="M112.731 49.389L114.596 48.7802C114.919 50.6446 115.852 51.2724 117.754 51.2724C119.485 51.2724 120.322 50.7778 120.322 49.7124C120.322 48.7421 119.98 48.3997 118.591 48.1143L116.346 47.6767C114.691 47.3533 113.131 46.5352 113.131 44.4045C113.131 42.3307 114.824 40.9609 117.374 40.9609C119.58 40.9609 121.502 41.8361 121.997 44.6137L120.132 45.1274C119.885 42.9395 118.953 42.6351 117.431 42.6351C115.794 42.6351 115.033 43.1488 115.033 44.2713C115.033 45.2035 115.376 45.6411 116.422 45.8313L119.314 46.4021C121.007 46.7255 122.168 47.5816 122.168 49.408C122.168 51.5388 120.36 52.9657 117.621 52.9657C115.129 52.9276 113.283 51.7481 112.731 49.389Z" fill="#E80537"/>
<path d="M135.809 41.1907V52.7007H133.925V50.3417C133.069 51.9778 131.547 52.929 129.568 52.929C126.258 52.929 124.07 50.5319 124.07 46.9362C124.07 43.3405 126.277 40.9434 129.568 40.9434C131.547 40.9434 133.069 41.8946 133.925 43.5307V41.1717H135.809V41.1907ZM134.02 46.9362C134.02 44.0254 132.746 42.6556 130.006 42.6556C127.266 42.6556 125.992 44.0254 125.992 46.9362C125.992 49.847 127.266 51.2168 130.006 51.2168C132.765 51.2168 134.02 49.847 134.02 46.9362Z" fill="#E80537"/>
<path d="M138.7 49.389L140.565 48.7802C140.888 50.6446 141.82 51.2724 143.723 51.2724C145.454 51.2724 146.291 50.7778 146.291 49.7124C146.291 48.7421 145.949 48.3997 144.56 48.1143L142.315 47.6767C140.66 47.3533 139.1 46.5352 139.1 44.4045C139.1 42.3307 140.793 40.9609 143.342 40.9609C145.549 40.9609 147.471 41.8361 147.965 44.6137L146.101 45.1274C145.854 42.9395 144.921 42.6351 143.399 42.6351C141.763 42.6351 141.002 43.1488 141.002 44.2713C141.002 45.2035 141.345 45.6411 142.391 45.8313L145.283 46.4021C146.976 46.7255 148.156 47.5816 148.156 49.408C148.156 51.5388 146.348 52.9657 143.609 52.9657C141.097 52.9276 139.252 51.7481 138.7 49.389Z" fill="#E80537"/>
<path d="M32.6367 34.3202C32.6367 34.3202 32.6367 34.4343 32.6367 32.8172C32.6367 26.1395 31.9518 22.6008 29.3835 19.8613C28.4132 18.8149 27.1956 18.0158 25.8449 17.5783C22.3252 16.3987 18.9578 17.9968 16.5988 20.1276C13.8021 22.6199 11.5381 21.6306 9.63565 21.9159C8.01853 22.1633 6.68679 22.2584 4.49892 23.7043C3.58573 24.3131 1.56907 26.2346 1.03638 29.2215C0.808078 30.5533 0.846128 34.1109 0.846128 34.1109L32.6367 34.3202Z" fill="#E80537"/>
<path d="M29.6494 30.7637H3.83263C2.17746 30.7637 0.845703 32.0954 0.845703 33.7506V50.0359C0.845703 51.6911 2.17746 53.0228 3.83263 53.0228H29.6494C31.3046 53.0228 32.6363 51.6911 32.6363 50.0359V33.7506C32.6363 32.0954 31.3046 30.7637 29.6494 30.7637Z" fill="#FF7500"/>
<path d="M22.4204 10.7491C22.4204 8.29486 20.3847 6.79189 17.7213 6.62067C17.3598 6.60165 16.9793 6.67774 16.6368 6.58262C15.99 6.41139 15.6285 5.89772 15.6285 5.28893C15.6285 4.62306 16.3134 3.88108 17.2076 4.09035C17.9115 4.29963 17.8544 4.60403 18.1778 4.92745C18.8247 5.59333 20.4989 5.51722 21.4311 5.07965C22.3824 4.64208 22.6106 3.76693 21.9828 3.08204C21.2599 2.28299 20.2516 1.73127 18.9959 1.40785C18.7866 1.35077 18.5774 1.31272 18.3681 1.27467C18.3681 1.27467 18.3491 1.27467 18.3491 1.25564C18.273 0.551723 17.7022 0 16.9793 0C16.2754 0 15.7046 0.551722 15.6285 1.23662C15.6285 1.25564 15.6095 1.25565 15.6095 1.27467C15.5524 1.2937 15.5334 1.2937 15.5144 1.2937C12.927 1.75029 10.9294 3.50058 11.1196 5.61235L11.1006 5.59333C11.1006 7.17239 12.6606 8.71341 14.7343 9.26513C14.8295 9.28416 14.9056 9.3222 15.0007 9.34123C15.0387 9.36025 15.0958 9.36026 15.1339 9.37928C15.3431 9.41733 15.5714 9.45538 15.7997 9.47441C15.8188 9.47441 15.8378 9.47441 15.8568 9.47441C16.1993 9.49343 16.5417 9.43635 16.8842 9.51245C17.531 9.68368 17.8925 10.1974 17.8925 10.8061C17.8925 11.472 17.2076 12.214 16.3134 12.0047C15.6095 11.7954 15.6666 11.491 15.3431 11.1676C14.6963 10.5017 13.0221 10.5779 12.0899 11.0154C11.1386 11.453 10.9103 12.3281 11.5382 13.013C12.2611 13.7931 13.2314 14.3448 14.449 14.6682C14.487 14.6682 14.506 14.6872 14.5441 14.7063C14.7534 14.7633 14.9627 14.8014 15.1529 14.8394H15.1719C15.248 15.5433 15.8188 16.0951 16.5417 16.0951C17.2456 16.0951 17.8164 15.5433 17.8925 14.8585C17.8925 14.8394 17.9115 14.8394 17.9115 14.8204C17.9686 14.8014 17.9876 14.8014 18.0066 14.8014C18.1398 14.7824 18.8818 14.5921 18.9959 14.5541C20.9745 13.9453 22.4204 12.6706 22.4204 10.7491Z" fill="#59D159"/>
</svg>
