<svg width="47" height="36" viewBox="0 0 47 36" fill="none" xmlns="http://www.w3.org/2000/svg">
<path d="M0 36V25.304C0 22.2668 0.592437 19.1637 1.77731 15.9945C2.96218 12.8253 4.52556 9.83769 6.46744 7.03163C8.40931 4.22558 10.5158 1.8817 12.7868 0L22.0683 5.49656C20.2251 8.40165 18.7111 11.4388 17.5263 14.608C16.3743 17.7772 15.7983 21.3095 15.7983 25.2049V36H0ZM24.9317 36V25.304C24.9317 22.2668 25.5242 19.1637 26.709 15.9945C27.8939 12.8253 29.4573 9.83769 31.3992 7.03163C33.341 4.22558 35.4475 1.8817 37.7185 0L47 5.49656C45.1569 8.40165 43.6429 11.4388 42.458 14.608C41.306 17.7772 40.73 21.3095 40.73 25.2049V36H24.9317Z" fill="#3767E1"/>
</svg>
