<svg width="64" height="32" viewBox="0 0 64 32" fill="none" xmlns="http://www.w3.org/2000/svg">
<path d="M2.31043 22.1633C0.770142 20.6621 0 18.5548 0 15.8414C0 14.1165 0.353027 12.6001 1.06125 11.2923C1.76839 9.98443 2.77099 8.9764 4.07013 8.26926C5.36818 7.56212 6.88023 7.20801 8.60517 7.20801C13.314 7.20801 16.0177 9.48585 16.715 14.0394H12.3549C12.1995 12.9738 11.8215 12.1743 11.2208 11.6409C10.6201 11.1076 9.76744 10.8415 8.66274 10.8415C7.34514 10.8415 6.29366 11.2879 5.50939 12.1786C4.72405 13.0704 4.33191 14.2914 4.33191 15.8414C4.33191 17.3719 4.7197 18.5787 5.49419 19.4608C6.26867 20.3428 7.34405 20.7838 8.72031 20.7838C9.84348 20.7838 10.7309 20.5025 11.3805 19.9409C12.029 19.3793 12.4222 18.5657 12.558 17.499H16.9181C16.8215 18.8362 16.4532 20.0278 15.8134 21.0749C15.1736 22.121 14.2482 22.94 13.037 23.5309C11.8259 24.1218 10.3768 24.4173 8.69098 24.4173C5.97756 24.4162 3.8518 23.6656 2.31043 22.1633Z" fill="#E80537"/>
<path d="M36.7767 23.9806H32.5621V18.8351C32.4068 20.7534 31.8398 22.1633 30.8622 23.0649C29.8835 23.9665 28.5604 24.4173 26.8941 24.4173C25.3625 24.4173 24.0265 24.0784 22.8827 23.3995C21.7389 22.7216 20.8525 21.7386 20.2225 20.4492C19.5925 19.161 19.2774 17.6152 19.2774 15.8132C19.2774 14.0307 19.612 12.4904 20.28 11.1912C20.9492 9.89319 21.8594 8.90471 23.0119 8.22581C24.1644 7.548 25.4581 7.20801 26.892 7.20801C28.5202 7.20801 29.8281 7.6588 30.8165 8.55929C31.805 9.46086 32.3862 10.861 32.561 12.7598V7.64359H36.7767V23.9806ZM31.5595 19.4749C32.3253 18.5842 32.7077 17.3719 32.7077 15.8414C32.7077 14.2718 32.3253 13.0411 31.5595 12.1493C30.7937 11.2586 29.7325 10.8121 28.3769 10.8121C26.943 10.8121 25.7851 11.2532 24.9031 12.1352C24.021 13.0172 23.58 14.2425 23.58 15.8121C23.58 17.3622 24.0254 18.5831 24.9172 19.4749C25.8079 20.3667 26.9615 20.812 28.3758 20.812C29.7325 20.812 30.7937 20.3667 31.5595 19.4749Z" fill="#E80537"/>
<path d="M35.7307 31.5962V27.3816C36.5638 27.6336 37.397 27.7596 38.2301 27.7596C39.2762 27.7596 40.0224 27.5272 40.4688 27.0623C40.9142 26.5973 41.1369 25.7729 41.1369 24.5911V7.64467H45.3515V24.7942C45.3515 26.5767 45.1136 27.9921 44.6389 29.0381C44.1642 30.0842 43.4278 30.8358 42.4295 31.291C41.4313 31.7461 40.0995 31.9742 38.4322 31.9742C37.3481 31.9742 36.4476 31.8482 35.7307 31.5962Z" fill="#E80537"/>
<path d="M64 7.64467V23.9806H59.7854V18.4288H59.7561C59.7561 19.8051 59.5236 20.9391 59.0587 21.8298C58.5938 22.7216 57.9877 23.3756 57.2414 23.7916C56.4952 24.2076 55.6859 24.4173 54.8148 24.4173C53.0507 24.4173 51.7288 23.9285 50.8468 22.9498C49.9647 21.9711 49.5237 20.4449 49.5237 18.3713V7.64467H53.7383V17.2948C53.7383 18.4571 53.9751 19.3054 54.4509 19.8377C54.9256 20.371 55.6468 20.6372 56.6168 20.6372C57.4695 20.6372 58.2104 20.3178 58.8404 19.678C59.4704 19.0382 59.7854 18.166 59.7854 17.0624V7.64467H64Z" fill="#E80537"/>
<path d="M41.4996 4.24393C41.0054 3.75947 40.7588 3.17833 40.7588 2.49943C40.7588 1.80207 41.0054 1.21115 41.4996 0.726693C41.9938 0.242231 42.5804 0 43.2582 0C43.936 0 44.5172 0.242231 45.0027 0.726693C45.4872 1.21115 45.7294 1.80207 45.7294 2.49943C45.7294 3.17724 45.4872 3.75947 45.0027 4.24393C44.5183 4.72839 43.9371 4.97062 43.2582 4.97062C42.5804 4.97062 41.9938 4.72839 41.4996 4.24393Z" fill="#00E984"/>
</svg>
