<svg width="34" height="54" viewBox="0 0 34 54" fill="none" xmlns="http://www.w3.org/2000/svg">
<path d="M26.0901 1.06339C26.0511 0.683631 25.9314 0.237003 25.3591 0.0641557C24.8219 -0.0973368 24.1768 0.0755107 23.6695 0.267283C20.0575 1.63871 18.0193 4.04596 17.0022 6.55288C15.9837 4.04722 13.9468 1.63871 10.3348 0.267283C9.82755 0.074249 9.18241 -0.0973368 8.64523 0.0641557C8.07162 0.235742 7.95326 0.682369 7.91424 1.06339C7.59037 4.17843 7.94025 7.4701 10.6951 10.1297C12.1025 11.4885 14.181 12.8221 16.8357 13.0416C16.876 13.0454 16.9436 13.0454 17.0048 13.0454C17.0659 13.0454 17.1322 13.0454 17.1739 13.0416C19.8273 12.8221 21.9071 11.4885 23.3144 10.1297C26.0693 7.46884 26.4179 4.17843 26.0953 1.06339H26.0901Z" fill="#59D359"/>
<path d="M26.8328 28.9881C22.9866 28.9881 19.9105 32.1397 19.969 36.0332C19.9885 36.8255 19.6894 37.5939 19.1327 38.1743C18.589 38.737 17.8281 39.0536 17.0321 39.0499C16.2282 39.0473 15.4608 38.7269 14.9041 38.1654C14.3331 37.5889 14.0106 36.8218 14.0015 36.0219C13.9403 32.1259 10.7341 28.9515 6.86587 28.9414C2.99892 28.9313 -0.0577043 32.0931 0.000826732 35.9865C0.071064 40.531 1.93625 44.8762 5.21009 48.1275C8.35256 51.3296 12.7021 53.1527 17.2597 53.1754C21.7679 53.1931 26.0797 51.3838 29.1545 48.1843C32.3438 44.9191 34.0828 40.5689 33.997 36.0711C33.9176 32.1751 30.7114 28.9982 26.8328 28.9881Z" fill="#E80537"/>
<path d="M26.8328 16.076C22.9866 16.076 19.9105 19.2276 19.969 23.1211C19.9885 23.9134 19.6894 24.6818 19.1327 25.2622C18.589 25.8249 17.8281 26.1415 17.0321 26.1377C16.2282 26.1352 15.4608 25.8148 14.9041 25.2533C14.3331 24.6767 14.0106 23.9097 14.0015 23.1098C13.9403 19.2138 10.7341 16.0394 6.86587 16.0293C2.99892 16.0192 -0.0577043 19.1809 0.000826732 23.0744C0.071064 27.6189 1.93625 31.9641 5.21009 35.2154C8.35256 38.4175 12.7021 40.2406 17.2597 40.2633C21.7679 40.281 26.0797 38.4717 29.1545 35.2722C32.3438 32.007 34.0828 27.6568 33.997 23.159C33.9176 19.263 30.7114 16.0861 26.8328 16.076Z" fill="#FF7500"/>
</svg>
